<?xml version="1.0" encoding="utf-8"?>
<!-- Generator: Adobe Illustrator 23.0.2, SVG Export Plug-In . SVG Version: 6.00 Build 0)  -->
<svg version="1.1" id="Capa_1" xmlns="http://www.w3.org/2000/svg" xmlns:xlink="http://www.w3.org/1999/xlink" x="0px" y="0px"
	 viewBox="0 0 455.2 455.2" style="enable-background:new 0 0 455.2 455.2;" xml:space="preserve">
<style type="text/css">
	.st0{fill:#E55151;}
</style>
<path class="st0" d="M67.3,455.1H4.2c-2.3,0-4.2-1.9-4.2-4.2V348.5c0-2.3,1.9-4.2,4.2-4.2h63.1c2.3,0,4.2,1.9,4.2,4.2v102.4
	C71.5,453.2,69.6,455.1,67.3,455.1z"/>
<path class="st0" d="M161.7,455.1h-60.2c-3.1,0-5.7-2.5-5.7-5.7V258.3c0-3.1,2.5-5.7,5.7-5.7h60.2c3.1,0,5.7,2.5,5.7,5.7v191.1
	C167.4,452.6,164.9,455.1,161.7,455.1z"/>
<path class="st0" d="M256.7,455.1h-58.2c-3.7,0-6.6-3-6.6-6.6v-265c0-3.7,3-6.6,6.6-6.6h58.2c3.7,0,6.6,3,6.6,6.6v265
	C263.3,452.1,260.3,455.1,256.7,455.1z"/>
<path class="st0" d="M351.7,455.1h-56.3c-4.2,0-7.6-3.4-7.6-7.6V99.4c0-4.2,3.4-7.6,7.6-7.6h56.3c4.2,0,7.6,3.4,7.6,7.6v348.2
	C359.2,451.7,355.9,455.1,351.7,455.1z"/>
<path class="st0" d="M446.7,455.1h-54.5c-4.7,0-8.5-3.8-8.5-8.5V8.5c0-4.7,3.8-8.5,8.5-8.5h54.5c4.7,0,8.5,3.8,8.5,8.5v438.2
	C455.2,451.3,451.4,455.1,446.7,455.1z"/>
</svg>
