<?xml version="1.0" encoding="utf-8"?>
<!-- Generator: Adobe Illustrator 23.0.2, SVG Export Plug-In . SVG Version: 6.00 Build 0)  -->
<svg version="1.1" id="Capa_1" xmlns="http://www.w3.org/2000/svg" xmlns:xlink="http://www.w3.org/1999/xlink" x="0px" y="0px"
	 viewBox="0 0 714 224.45" style="enable-background:new 0 0 714 224.45;" xml:space="preserve">
<style type="text/css">
	.st0{fill:#E55151;}
	.st1{fill:#211F38;}
</style>
<g>
	<g>
		<g>
			<path class="st0" d="M569.6,164.14l18.89,36.54l41.21-22.71l0.5-1.76c0,0,3.82-13.47,7.63-26.99c2.21-7.85,3.96-14.12,5.21-18.63
				c0.71-2.56,1.3-4.71,1.7-6.22c0.08-0.29,0.15-0.56,0.22-0.82c2.52-2.38,4.96-4.82,7.31-7.32c23.45-24.94,38.6-56.6,45.02-94.1
				l1.04-6.1l-6.1,1.04c-37.5,6.42-69.16,21.57-94.1,45.02c-2.35,2.2-4.63,4.49-6.87,6.84c-0.38,0.1-0.8,0.21-1.27,0.33
				c-1.51,0.4-3.65,0.99-6.22,1.7c-4.51,1.25-10.78,3-18.63,5.21c-13.51,3.8-26.99,7.63-26.99,7.63l-1.76,0.5l-22.71,41.21
				l35.79,18.5l5.71,5.71l-4.02,4.02l-20.47-0.66l-23.66,54.25l54.25-23.66l-0.66-20.47l4.02-4.02L569.6,164.14z M622.28,172.07
				l-30.14,16.61l-12.43-24.06c20.64-8.7,38.29-18.88,53.35-30.79C630.01,144.72,625.7,159.99,622.28,172.07z M687.49,26.87
				c-7.04,34.93-22.07,63.82-45.45,87.09l-3.93,3.68c-16.87,15.78-37.59,28.68-63.25,39.38l-17.62-17.62
				C583.61,76.09,626.27,39.21,687.49,26.87z M525.69,121.87l16.61-30.14c12.21-3.46,27.69-7.83,38.6-10.87
				c-2.21,2.77-4.35,5.63-6.44,8.58c-0.11,0.15-0.22,0.31-0.32,0.46c-0.56,0.79-1.11,1.59-1.66,2.39c-0.13,0.2-0.27,0.39-0.4,0.59
				c-0.64,0.95-1.28,1.9-1.91,2.86c-0.06,0.09-0.11,0.18-0.17,0.26c-0.55,0.84-1.09,1.69-1.63,2.54c-0.23,0.37-0.46,0.74-0.69,1.1
				c-0.37,0.59-0.73,1.18-1.1,1.78c-0.25,0.41-0.5,0.83-0.75,1.24c-0.38,0.63-0.75,1.26-1.12,1.9c-0.36,0.61-0.72,1.23-1.07,1.85
				c-0.37,0.64-0.74,1.29-1.1,1.94c-0.28,0.49-0.55,0.99-0.82,1.48c-0.29,0.52-0.57,1.04-0.86,1.57c-0.28,0.51-0.55,1.02-0.82,1.53
				c-0.3,0.57-0.6,1.14-0.9,1.72c-0.32,0.62-0.65,1.24-0.97,1.87c-0.41,0.8-0.81,1.6-1.21,2.4c-0.24,0.47-0.47,0.95-0.7,1.43
				c-0.3,0.62-0.61,1.24-0.91,1.87c-0.23,0.47-0.46,0.95-0.68,1.43c-0.34,0.72-0.68,1.45-1.02,2.18c-0.17,0.37-0.35,0.74-0.52,1.12
				c-0.49,1.08-0.98,2.16-1.46,3.26c-0.16,0.36-0.32,0.73-0.47,1.09c-0.35,0.81-0.7,1.62-1.05,2.44c-0.09,0.21-0.18,0.41-0.27,0.62
				L525.69,121.87z M523.97,190.4l12.38-28.38l15.5,0.5l0.5,15.5L523.97,190.4z"/>
			<circle class="st0" cx="647.46" cy="66.91" r="12.36"/>
		</g>
		<g>
			<path class="st0" d="M714,112.23c0-19.62-5-38.47-14.4-55.1c-1.28,3.79-2.66,7.5-4.15,11.15c17.94,38.34,11.11,85.5-20.51,117.12
				c-34.21,34.21-86.6,39.41-126.35,15.6l-9.69,4.23c18.41,12.5,40.12,19.23,62.87,19.23c29.98,0,58.16-11.67,79.36-32.87
				C702.33,170.39,714,142.2,714,112.23z"/>
			<path class="st0" d="M513.31,165.91c-24.15-39.8-19.05-92.49,15.3-126.85c31.78-31.78,79.25-38.52,117.7-20.23
				c3.63-1.47,7.33-2.85,11.1-4.12C640.65,5.11,621.6,0,601.77,0c-29.98,0-58.16,11.67-79.36,32.87
				c-21.2,21.2-32.87,49.38-32.87,79.36c0,22.94,6.84,44.82,19.55,63.33L513.31,165.91z"/>
		</g>
	</g>
	<g>
		<path class="st1" d="M40.1,91.6L27.99,74.11h-0.72H14.62V91.6H0.09V28.8h27.18c16.78,0,27.27,8.7,27.27,22.79
			c0,9.42-4.75,16.33-12.92,19.83L55.71,91.6H40.1z M26.47,40.65H14.62v21.89h11.84c8.88,0,13.37-4.13,13.37-10.95
			C39.83,44.68,35.35,40.65,26.47,40.65z"/>
		<path class="st1" d="M72.84,60.2c0-18.66,14.53-32.48,34.36-32.48c19.74,0,34.36,13.73,34.36,32.48s-14.62,32.48-34.36,32.48
			C87.38,92.68,72.84,78.86,72.84,60.2z M126.85,60.2c0-11.93-8.43-20.1-19.65-20.1c-11.21,0-19.65,8.16-19.65,20.1
			s8.43,20.1,19.65,20.1C118.42,80.3,126.85,72.14,126.85,60.2z"/>
		<path class="st1" d="M159.32,60.2c0-18.93,14.53-32.48,34.09-32.48c10.86,0,19.92,3.95,25.84,11.12l-9.33,8.61
			c-4.22-4.84-9.51-7.36-15.79-7.36c-11.75,0-20.1,8.25-20.1,20.1c0,11.84,8.34,20.1,20.1,20.1c6.28,0,11.57-2.51,15.79-7.45
			l9.33,8.61c-5.92,7.27-14.98,11.21-25.93,11.21C173.86,92.68,159.32,79.13,159.32,60.2z"/>
		<path class="st1" d="M262.67,66.93l-8.43,8.79V91.6h-14.44V28.8h14.44v29.34l27.81-29.34h16.15L272.18,56.8l27.54,34.81h-16.96
			L262.67,66.93z"/>
		<path class="st1" d="M365.57,79.94V91.6h-48.62V28.8h47.46v11.66h-33.01V54.1h29.16v11.3h-29.16v14.53H365.57z"/>
		<path class="st1" d="M400.91,40.65h-20.1V28.8h54.73v11.84h-20.1V91.6h-14.53V40.65z"/>
	</g>
	<g>
		<path class="st1" d="M0,127.73h28.53c20.54,0,34.63,12.38,34.63,31.4s-14.09,31.4-34.63,31.4H0V127.73z M27.81,178.59
			c12.47,0,20.63-7.45,20.63-19.47c0-12.02-8.16-19.47-20.63-19.47H14.53v38.94H27.81z"/>
		<path class="st1" d="M138.87,178.86v11.66H90.25v-62.8h47.46v11.66h-33.01v13.64h29.16v11.3h-29.16v14.53H138.87z"/>
		<path class="st1" d="M161.66,184.34l4.93-10.94c5.29,3.86,13.19,6.55,20.72,6.55c8.61,0,12.11-2.87,12.11-6.73
			c0-11.75-36.51-3.68-36.51-27c0-10.68,8.61-19.56,26.47-19.56c7.89,0,15.97,1.88,21.8,5.56l-4.49,11.03
			c-5.83-3.32-11.84-4.93-17.4-4.93c-8.61,0-11.93,3.23-11.93,7.18c0,11.57,36.51,3.59,36.51,26.64c0,10.5-8.7,19.47-26.64,19.47
			C177.27,191.6,167.22,188.64,161.66,184.34z"/>
		<path class="st1" d="M239.97,127.73h14.53v62.8h-14.53V127.73z"/>
		<path class="st1" d="M327.98,158.14h13.28v25.48c-6.91,5.2-16.42,7.98-25.39,7.98c-19.74,0-34.27-13.55-34.27-32.48
			s14.53-32.48,34.54-32.48c11.04,0,20.19,3.77,26.29,10.86l-9.33,8.61c-4.58-4.84-9.87-7.09-16.24-7.09
			c-12.2,0-20.54,8.16-20.54,20.1c0,11.75,8.34,20.1,20.37,20.1c3.95,0,7.63-0.72,11.3-2.69V158.14z"/>
		<path class="st1" d="M428.45,127.73v62.8h-11.93l-31.31-38.13v38.13h-14.35v-62.8h12.02l31.22,38.13v-38.13H428.45z"/>
	</g>
</g>
</svg>
